<svg xmlns="http://www.w3.org/2000/svg" viewBox="0 0 49.17 48.14"><defs><style>.cls-1{fill:none;stroke:#333;stroke-linecap:round;stroke-linejoin:round;stroke-width:2px;}</style></defs><title>body</title><g id="Layer_2" data-name="Layer 2"><g id="Layer_2-2" data-name="Layer 2"><line class="cls-1" x1="48.17" y1="47.14" x2="36.3" y2="35.27"/><path class="cls-1" d="M28.39,24.86a8.78,8.78,0,0,1,2.49-7.43L39.31,9a10.67,10.67,0,0,1,8.53-2.57"/><rect class="cls-1" x="28.21" y="8.85" width="9.33" height="5.45" transform="translate(1.44 26.64) rotate(-45)"/><rect class="cls-1" x="28.04" y="5.95" width="2.75" height="4.33" transform="translate(2.88 23.18) rotate(-45)"/><polygon class="cls-1" points="31.42 3.05 20.09 14.37 16.63 13.74 29.37 1 31.42 3.05"/><path class="cls-1" d="M1,45.38l8.93-2.94,10.89,1.22a8.68,8.68,0,0,0,5.71-1.4l18-12.88a2,2,0,0,0,.63-2.66h0A2,2,0,0,0,42.48,26L28.05,33.73"/><path class="cls-1" d="M13.42,34.27l3.18-1c2.12-.66,6.36.42,9,1.22A2.32,2.32,0,0,0,28.46,33h0A2.32,2.32,0,0,0,26.87,30l-8.24-2.3a11.88,11.88,0,0,0-10.39,2L1,34.23"/><path class="cls-1" d="M26.87,30l7.75-4.29a7.08,7.08,0,0,1,5.67-.52l2.2.73"/><path class="cls-1" d="M22,28.67l6.21-3.44a8.76,8.76,0,0,1,6.29-.85l2,.49"/><path class="cls-1" d="M15.5,21.63a3.24,3.24,0,1,1-6.47,0c0-1.79,3.24-6.24,3.24-6.24S15.5,19.85,15.5,21.63Z"/></g></g></svg>