<svg xmlns="http://www.w3.org/2000/svg" viewBox="0 0 40.2 49.72"><defs><style>.cls-1{fill:none;stroke:#333;stroke-linecap:round;stroke-linejoin:round;stroke-width:2px;}</style></defs><title>face</title><g id="Layer_2" data-name="Layer 2"><g id="Layer_2-2" data-name="Layer 2"><line class="cls-1" x1="11.85" y1="16.74" x2="23.83" y2="8.61"/><path class="cls-1" d="M33.8,27.92c0,7.63-6.19,20.8-13.82,20.8S6.15,35.55,6.15,27.92a13.82,13.82,0,0,1,27.64,0Z"/><path class="cls-1" d="M20.1,1C10.06,1,1,11.91,1,22A20.9,20.9,0,0,0,8,37a27.57,27.57,0,0,1-1.89-9,13.82,13.82,0,1,1,27.64,0,27.91,27.91,0,0,1-2,9.37A21,21,0,0,0,39.2,22C39.2,11.91,30.14,1,20.1,1Z"/><path class="cls-1" d="M10.58,28.55s2.84,1.8,5.46,0"/><path class="cls-1" d="M28.75,28.55s-2.84,1.8-5.46,0"/><path class="cls-1" d="M16,39.81s2.87,2,7.24,0"/></g></g></svg>