<svg xmlns="http://www.w3.org/2000/svg" viewBox="0 0 46.75 45.44"><defs><style>.cls-1{fill:none;stroke:#333;stroke-linecap:round;stroke-linejoin:round;stroke-width:2px;}</style></defs><title>hair</title><g id="Layer_2" data-name="Layer 2"><g id="Layer_2-2" data-name="Layer 2"><path class="cls-1" d="M34.31,18.68a10.93,10.93,0,0,1-21.87,0C12.44,12.64,23.37,1,23.37,1S34.31,12.64,34.31,18.68Z"/><path class="cls-1" d="M23.65,26a7.88,7.88,0,0,1-7.88-7.88"/><path class="cls-1" d="M33.82,21.92a10.94,10.94,0,0,1-20.89,0C5.84,23.62,1,27,1,30.88,1,36.47,11,41,23.37,41s22.37-4.53,22.37-10.13C45.75,27,40.91,23.62,33.82,21.92Z"/><path class="cls-1" d="M7,42.28c1.21.35,2.48.66,3.8.93"/><path class="cls-1" d="M15.76,44a65.84,65.84,0,0,0,7.61.43,61.77,61.77,0,0,0,13.94-1.53"/><path class="cls-1" d="M31.25,26.25a10.91,10.91,0,0,1-15.76,0c-4.19,1-7,2.68-7,4.63,0,3,6.65,5.47,14.85,5.47s14.85-2.45,14.85-5.47C38.23,28.93,35.44,27.22,31.25,26.25Z"/></g></g></svg>