<svg xmlns="http://www.w3.org/2000/svg" viewBox="0 0 48.17 38.44"><defs><style>.cls-1{fill:none;stroke:#333;stroke-linecap:round;stroke-linejoin:round;stroke-width:2px;}</style></defs><title>lips</title><g id="Layer_2" data-name="Layer 2"><g id="Layer_2-2" data-name="Layer 2"><circle class="cls-1" cx="33.5" cy="27.76" r="2.6"/><path class="cls-1" d="M43.91,24.23a3.57,3.57,0,0,0-4.12-2.39c-1.15.4-3.8,2.5-4.27,4.28a2.59,2.59,0,0,1,.58,1.63s0,.08,0,.12c1.44,1.15,4.88,1.18,6,.77A3.57,3.57,0,0,0,43.91,24.23Z"/><path class="cls-1" d="M41,32.21c-.69-1-3.47-3.05-5.31-3a2.6,2.6,0,0,1-1.5,1.06c-.69,1.7.18,5,.87,6A3.64,3.64,0,0,0,41,32.21Z"/><path class="cls-1" d="M31.35,29.21c-1.84-.06-4.62,2-5.31,3A3.64,3.64,0,0,0,32,36.26c.69-1,1.56-4.28.87-6A2.6,2.6,0,0,1,31.35,29.21Z"/><path class="cls-1" d="M30.91,27.76a2.59,2.59,0,0,1,.58-1.63c-.46-1.78-3.12-3.89-4.27-4.28a3.64,3.64,0,0,0-2.35,6.8c1.16.4,4.61.37,6-.77C30.91,27.84,30.91,27.8,30.91,27.76Z"/><path class="cls-1" d="M32.63,25.32a2.57,2.57,0,0,1,1.84,0c1.55-1,2.7-4.23,2.7-5.46a3.64,3.64,0,0,0-7.2,0C30,21.1,31.09,24.3,32.63,25.32Z"/><ellipse class="cls-1" cx="24.08" cy="6.73" rx="23.08" ry="5.73"/><path class="cls-1" d="M3.31,9.23c3.74,1.91,11.64,3.23,20.77,3.23s17-1.32,20.77-3.23C41.12,7.32,33.22,6,24.08,6S7.05,7.32,3.31,9.23Z"/><path class="cls-1" d="M1,6.73a1.46,1.46,0,0,0,0,.21c0-.17,0-.34,0-.51A1.47,1.47,0,0,0,1,6.73Z"/><path class="cls-1" d="M47.17,6.73a1.47,1.47,0,0,0,0-.3c0,.17,0,.34,0,.51A1.46,1.46,0,0,0,47.17,6.73Z"/><path class="cls-1" d="M43.53,23.49c2.3-3.87,3.64-8.95,3.64-15.37,0-.4,0-.79,0-1.19-.45,3.07-10.6,5.52-23.06,5.52S1.47,10,1,6.94c0,.4,0,.79,0,1.19C1,26,11.33,33.46,24.08,33.46q.79,0,1.57,0"/><line class="cls-1" x1="22.5" y1="9.49" x2="24.5" y2="9.49"/><line class="cls-1" x1="14.5" y1="9.49" x2="16.5" y2="9.49"/><line class="cls-1" x1="31.5" y1="9.49" x2="33.5" y2="9.49"/></g></g></svg>