<svg xmlns="http://www.w3.org/2000/svg" viewBox="0 0 45.6 46.93"><defs><style>.cls-1{fill:none;stroke:#333;stroke-linecap:round;stroke-linejoin:round;stroke-width:2px;}</style></defs><title>shower+bath</title><g id="Layer_2" data-name="Layer 2"><g id="Layer_2-2" data-name="Layer 2"><path class="cls-1" d="M19.59,13.5A12.5,12.5,0,0,1,32.1,1h0A12.5,12.5,0,0,1,44.6,13.5V45.41"/><polyline class="cls-1" points="19.13 25.88 38.13 25.88 38.13 21.87 19.2 13.88 19.59 13.88 1.13 21.87 1.13 25.88 20.13 25.88"/><rect class="cls-1" x="1" y="21.91" width="37.13" height="3.93"/><path class="cls-1" d="M10.39,33.74a2.65,2.65,0,0,1-5.29,0C5.1,32.28,7.75,29,7.75,29S10.39,32.28,10.39,33.74Z"/><path class="cls-1" d="M31.4,33.74a2.65,2.65,0,0,1-5.29,0c0-1.46,2.65-4.76,2.65-4.76S31.4,32.28,31.4,33.74Z"/><path class="cls-1" d="M20.9,33.74a2.65,2.65,0,0,1-5.29,0c0-1.46,2.65-4.76,2.65-4.76S20.9,32.28,20.9,33.74Z"/><path class="cls-1" d="M16.33,43.29a2.65,2.65,0,1,1-5.29,0c0-1.46,2.65-4.76,2.65-4.76S16.33,41.82,16.33,43.29Z"/><path class="cls-1" d="M26.83,43.29a2.65,2.65,0,0,1-5.29,0c0-1.46,2.65-4.76,2.65-4.76S26.83,41.82,26.83,43.29Z"/></g></g></svg>